<svg width="122" height="22" viewBox="0 0 122 22" fill="none" xmlns="http://www.w3.org/2000/svg">
<path d="M66 4V0H62C59.7908 0 58 1.79086 58 4V8H54V12H58V22H62V12H66V8H62V4H66Z" fill="white"/>
<path d="M10.95 4.144C12.635 3.648 13.934 4.414 14.527 5.323C15.2 5.092 15.858 4.842 16.538 4.615C16.5249 5.30137 16.2117 5.94752 15.681 6.383C16.366 6.553 16.985 5.892 16.985 5.892C16.816 6.892 15.979 7.68 15.422 7.916C15.191 14.666 12.247 19.133 5.34498 18.998H4.89898C4.48898 18.998 0.734977 18.538 0.000976562 17.111C2.27198 17.307 3.89398 16.689 4.69398 15.934C3.73398 15.634 2.01498 15.457 1.71498 12.984C2.06398 13.09 2.27898 13.212 2.90498 13.103C1.70498 12.247 0.373977 11.53 0.447977 9.33C0.732977 9.658 1.51498 9.866 1.78798 9.802C1.08498 9.561 -0.182023 6.442 0.893977 4.85C2.71198 6.704 4.62898 8.456 8.04598 8.623C8.25398 6.33 9.18298 4.793 10.95 4.144Z" fill="white"/>
<path fill-rule="evenodd" clip-rule="evenodd" d="M105 3H119C120.65 3 122 4.35 122 6V16C122 17.65 120.65 19 119 19H105C103.35 19 102 17.65 102 16V6C102 4.35 103.35 3 105 3ZM108.027 7.002V14.998L117.014 11L108.027 7.002Z" fill="white"/>
</svg>
